<svg width="1120" height="311" viewBox="0 0 1120 311" fill="none" xmlns="http://www.w3.org/2000/svg">
  <path
    d="M1050.05 37.4774L1075.02 112.846L1075.14 113.188H1079.6L1079.7 112.822L1100.63 37.4774H1119.34L1089.8 140.589C1088 146.877 1085.51 152.001 1082.33 155.974L1082.02 156.354L1082.02 156.361C1078.91 160.251 1074.95 163.118 1070.12 164.967L1069.65 165.142L1069.64 165.143C1064.7 166.982 1058.71 167.916 1051.64 167.916H1038.15V150.863H1053.21C1056.86 150.863 1060 150.39 1062.63 149.437L1062.63 149.438C1065.29 148.588 1067.47 147.01 1069.17 144.713L1069.17 144.714C1070.74 142.679 1072.04 139.979 1073.07 136.635L1073.27 135.957L1073.27 135.951L1075.07 129.467L1075.25 128.833H1061.96L1030.31 37.4774H1050.05Z"
    fill="url(#paint0_linear_4435_2481)" stroke="url(#paint1_linear_4435_2481)" />
  <path
    d="M988.76 9.96777V37.4775H1019.54V51.7256H988.76V99.3691C988.76 104.358 990.066 108.294 992.749 111.103L992.765 111.118C995.56 113.8 999.429 115.113 1004.3 115.113H1019.54V131.99H1005.87C998.347 131.99 991.991 131.007 986.795 129.059L986.296 128.867L985.808 128.67C980.96 126.655 977.219 123.337 974.575 118.698L974.314 118.229C971.685 113.186 970.355 106.33 970.355 97.6133V51.7256H954.79V37.4775H970.355V9.96777H988.76Z"
    fill="url(#paint2_linear_4435_2481)" stroke="url(#paint3_linear_4435_2481)" />
  <path
    d="M940.338 36.4299H943.159V53.4768H937.365C928.692 53.4768 921.888 55.7485 917.014 60.3586L916.549 60.8118C911.765 65.607 909.41 72.465 909.41 81.3167V130.938H889.953V37.4768H905.217V65.7903L906.211 65.8616C907.369 57.8429 909.948 51.5243 913.915 46.8684L914.304 46.4231L914.306 46.4202C920.129 39.7845 928.776 36.4299 940.338 36.4299Z"
    fill="url(#paint4_linear_4435_2481)" stroke="url(#paint5_linear_4435_2481)" />
  <path
    d="M830.491 34.3248C840.243 34.3248 848.386 36.3929 854.938 40.4987L855.566 40.902C862.045 45.1552 866.949 50.6481 870.287 57.3903L870.605 58.0475L870.606 58.0504C873.953 64.9873 875.629 72.5099 875.629 80.6139V88.3541H802.849L802.893 88.8951C803.244 93.1644 804.093 97.1172 805.441 100.755L805.718 101.477L805.72 101.482C807.677 106.321 810.691 110.216 814.766 113.165L815.164 113.447L815.172 113.453C819.474 116.325 824.94 117.742 831.538 117.742C837.93 117.742 843.26 116.412 847.498 113.717L847.905 113.453L847.913 113.447C852.041 110.57 854.663 107.216 855.705 103.371H873.765C872.5 109.272 870.073 114.46 866.486 118.932L866.123 119.377L866.119 119.382C862.446 123.956 857.798 127.51 852.171 130.035L851.623 130.276C845.751 132.819 839.057 134.09 831.538 134.09C823.689 134.09 816.84 132.784 810.982 130.187L810.418 129.931L809.305 129.401C803.807 126.698 799.287 123.238 795.727 119.029H795.728C791.921 114.402 789.039 109.253 787.073 103.589C785.225 97.7994 784.301 91.8918 784.301 85.8707V82.5446C784.301 76.4024 785.225 70.501 787.072 64.8278C788.915 59.4052 791.563 54.5463 795.021 50.2487L795.724 49.3961L795.728 49.3922C799.409 44.9238 804.005 41.3712 809.531 38.736L810.068 38.484L810.072 38.4821C815.939 35.7156 822.741 34.3248 830.491 34.3248ZM830.491 50.6735C824.54 50.6735 819.496 52.007 815.387 54.7018L814.992 54.9664C810.956 57.7399 807.933 61.5211 805.912 66.2936L805.72 66.7584V66.7594C804.713 69.2607 803.956 71.9841 803.454 74.9225L803.354 75.5074H856.834L856.756 74.9391C856.311 71.6964 855.536 68.7312 854.431 66.0514L854.205 65.5192C852.185 60.7655 849.212 57.1219 845.273 54.608H845.272C841.325 51.9769 836.627 50.6735 830.491 50.6735Z"
    fill="url(#paint6_linear_4435_2481)" stroke="url(#paint7_linear_4435_2481)" />
  <path
    d="M694.246 4.00696V54.5607L695.181 52.921C698.586 46.9463 702.957 42.466 708.28 39.4601L708.799 39.173H708.8C714.545 36.0586 720.99 34.4991 728.141 34.4991C734.52 34.4992 740.282 35.6401 745.448 37.9122L745.946 38.1359L745.95 38.1368C751.361 40.562 755.965 43.9657 759.761 48.3488L759.765 48.3546L759.77 48.3595C763.44 52.3583 766.253 57.0217 768.208 62.3507L768.588 63.4259L768.59 63.4337C770.663 69.2161 771.708 75.4688 771.708 82.1954V85.6964C771.708 92.0027 770.79 97.888 768.967 103.368L768.59 104.458C766.642 109.878 763.831 114.735 760.162 119.033L759.417 119.886L759.416 119.887C755.748 123.999 751.365 127.302 746.271 129.793L745.242 130.28C739.72 132.821 733.558 134.091 726.744 134.091C719.363 134.091 712.758 132.52 706.919 129.38L706.356 129.071C700.502 125.735 695.844 120.9 692.391 114.555H692.392C691.896 113.612 691.432 112.643 691.007 111.647L690.047 111.843V130.939H674.789V4.00696H694.246ZM723.074 51.0226C718.188 51.0226 713.613 52.0702 709.351 54.1564L708.503 54.587C704.126 56.8912 700.595 60.208 697.898 64.5167L697.64 64.9366C694.899 69.3502 693.549 74.7024 693.549 80.9679V88.5001C693.549 94.5376 694.902 99.7698 697.643 104.187L697.647 104.193L697.651 104.2C700.407 108.343 703.944 111.543 708.266 113.793L708.687 114.008C713.185 116.263 717.985 117.393 723.074 117.393C728.689 117.393 733.659 116.056 737.968 113.371L738.383 113.108V113.107C742.778 110.245 746.16 106.322 748.526 101.334L748.525 101.333C751.01 96.2346 752.25 90.5539 752.25 83.9464C752.25 77.5459 751.088 71.9511 748.75 67.1779L748.52 66.7189C746.111 61.8923 742.811 58.1121 738.609 55.3888L738.2 55.129C733.91 52.3894 728.864 51.0226 723.074 51.0226Z"
    fill="url(#paint8_linear_4435_2481)" stroke="url(#paint9_linear_4435_2481)" />
  <path
    d="M643.971 0.5C648.2 0.500016 651.179 1.64773 653.03 3.83008L653.039 3.84082L653.048 3.85059C655.051 5.96861 656.059 8.52525 656.059 11.917C656.059 15.3165 655.046 18.0503 653.048 20.1631L653.043 20.168L653.038 20.1738C651.191 22.2451 648.096 23.333 643.971 23.333C639.856 23.333 636.863 22.2498 634.895 20.1641C633.013 18.0548 632.058 15.2023 632.058 11.917C632.058 8.63464 633.01 5.95477 634.901 3.83984L634.902 3.84082C636.874 1.64311 639.751 0.5 643.971 0.5Z"
    fill="url(#paint10_linear_4435_2481)" stroke="url(#paint11_linear_4435_2481)" />
  <path d="M657.285 37.4774V130.938H637.827V52.2499H624.013V37.4774H657.285Z"
    fill="url(#paint12_linear_4435_2481)" stroke="url(#paint13_linear_4435_2481)" />
  <path d="M568.137 4.00696V113.188H621.47V130.939H548.155V4.00696H568.137Z"
    fill="url(#paint14_linear_4435_2481)" stroke="url(#paint15_linear_4435_2481)" />
  <path
    d="M493.646 4.00696V130.939H478.383V112.126L477.427 111.92C477.036 112.787 476.614 113.624 476.165 114.435L475.707 115.237L475.703 115.243C472.015 121.708 467.246 126.483 461.397 129.591C455.528 132.59 449.078 134.091 442.04 134.091C435.339 134.091 429.229 132.875 423.703 130.451H423.702C418.291 128.031 413.511 124.625 409.357 120.235C405.575 116.119 402.602 111.39 400.438 106.05L400.017 104.974C397.826 99.195 396.728 92.8853 396.728 86.046V82.7189C396.728 75.9974 397.766 69.745 399.845 63.963L399.844 63.962C402.038 58.0581 405.099 52.9171 409.013 48.5284L409.014 48.5294C412.686 44.4171 417.017 41.1674 422.003 38.7784L423.009 38.3116L423.013 38.3097C428.537 35.7738 434.644 34.4992 441.342 34.4991C448.269 34.4991 454.477 35.9628 459.975 38.8839L460.505 39.171L460.516 39.1769C465.696 41.8745 469.951 45.9364 473.262 51.379L474.188 52.9034V4.00696H493.646ZM445.71 51.0226C440.095 51.0227 435.071 52.3596 430.657 55.047L430.231 55.3107C425.972 57.9611 422.61 61.674 420.144 66.4337L419.908 66.8976C417.425 71.8866 416.185 77.5722 416.185 84.295C416.185 91.0153 417.424 96.8809 419.908 101.866L420.355 101.644L419.908 101.867L419.912 101.876C422.439 106.704 425.856 110.482 430.169 113.204L430.589 113.464L430.598 113.47C435.109 116.087 440.209 117.393 445.885 117.393C451.208 117.393 456.017 116.207 460.292 113.822L460.291 113.821C464.687 111.442 468.193 107.986 470.799 103.474C473.528 98.8321 474.887 93.4239 474.887 87.2726V79.7413C474.887 73.8924 473.611 68.8476 471.042 64.629L470.789 64.2238V64.2228L470.268 63.4327C467.611 59.5405 464.223 56.5304 460.103 54.4103C455.714 52.1523 450.917 51.0226 445.71 51.0226Z"
    fill="url(#paint16_linear_4435_2481)" stroke="url(#paint17_linear_4435_2481)" />
  <path d="M381.058 4.00696V130.939H361.426V18.7794H349.013V4.00696H381.058Z"
    fill="url(#paint18_linear_4435_2481)" stroke="url(#paint19_linear_4435_2481)" />
  <path
    d="M341.854 36.4299H344.681V53.4768H338.881C330.213 53.4769 323.41 55.7486 318.535 60.3586L318.07 60.8118C313.286 65.607 310.932 72.465 310.932 81.3167V130.938H291.475V37.4768H306.732V65.8284L307.728 65.8987C308.881 57.859 311.459 51.5306 315.436 46.8694L315.824 46.4231L315.827 46.4202C321.651 39.7845 330.298 36.43 341.854 36.4299Z"
    fill="url(#paint20_linear_4435_2481)" stroke="url(#paint21_linear_4435_2481)" />
  <path
    d="M225.445 34.3248C233.179 34.3248 240.035 35.5757 246.001 38.069L246.576 38.3141L246.579 38.3151C252.619 40.8955 257.785 44.39 262.088 48.8073L262.502 49.2379L262.506 49.2428C266.613 53.4668 269.756 58.2524 271.938 63.5934L272.361 64.6696L272.364 64.6774C274.67 70.4605 275.824 76.4136 275.824 82.5446V86.0514C275.824 92.1794 274.729 98.1395 272.537 103.923C270.484 109.234 267.515 114.033 263.638 118.331L262.851 119.183C258.588 123.683 253.345 127.327 247.108 130.106C240.888 132.763 233.671 134.096 225.445 134.096C217.482 134.096 210.46 132.845 204.369 130.351L203.783 130.106C197.742 127.414 192.628 123.91 188.443 119.603L188.041 119.183H188.04C184.037 114.957 180.952 110.221 178.777 104.978L178.354 103.923C176.162 98.1394 175.066 92.1848 175.066 86.0514V82.5446C175.066 76.4184 176.162 70.4598 178.353 64.6774C180.658 58.8952 183.95 53.7507 188.216 49.2369L188.215 49.236C192.32 44.904 197.238 41.432 202.978 38.8248L204.137 38.3151H204.138C210.359 35.6572 217.462 34.3249 225.445 34.3248ZM225.445 51.2028C219.266 51.2028 213.899 52.5925 209.35 55.3864L208.912 55.6608C204.43 58.4248 200.952 62.1951 198.478 66.9615L198.241 67.4264C195.754 72.4128 194.519 78.0376 194.519 84.3004C194.519 90.1708 195.556 95.3244 197.634 100.047L198.062 100.986L198.067 100.994C200.478 105.826 203.891 109.711 208.307 112.652L208.737 112.934L208.745 112.939C213.387 115.8 218.958 117.218 225.445 117.218C231.73 117.218 237.155 115.887 241.708 113.203L242.146 112.939L242.153 112.934C246.781 109.96 250.279 105.978 252.653 100.986L252.652 100.985C255.137 96.0021 256.373 90.4359 256.373 84.3004C256.373 78.3555 255.213 72.7732 252.879 67.8961L252.649 67.4264C250.238 62.593 246.823 58.7568 242.402 55.9274L241.972 55.6569C237.337 52.6767 231.82 51.2028 225.445 51.2028Z"
    fill="url(#paint22_linear_4435_2481)" stroke="url(#paint23_linear_4435_2481)" />
  <path
    d="M21.293 4.00696L48.3105 113.506L48.4043 113.886H54.4385L54.5215 113.487L76.1182 9.08997H99.623L124.243 113.501L124.334 113.886H130.193L130.279 113.493L154.277 4.00696H173.876L144.033 130.939H110.377L88.2334 38.3282L87.2588 38.338L67.0947 130.939H33.7852L0.646484 4.00696H21.293Z"
    fill="url(#paint24_linear_4435_2481)" stroke="url(#paint25_linear_4435_2481)" />
  <path d="M901.727 180.216V307.147H882.095V194.988H869.676V180.216H901.727Z"
    fill="url(#paint26_linear_4435_2481)" stroke="url(#paint27_linear_4435_2481)" />
  <path
    d="M821.781 212.459C831.303 212.459 839.161 213.681 845.384 216.105V216.106C851.387 218.447 855.862 222.127 858.831 227.139L859.114 227.628L859.12 227.64C862.204 232.792 863.772 239.761 863.772 248.587V307.147H848.509V289.491L847.532 289.342C846.864 291.474 846.032 293.438 845.041 295.238L844.606 296L844.604 296.004C842.167 300.228 838.769 303.528 834.394 305.923L833.972 306.149C829.511 308.444 824.232 309.602 817.413 309.602C810.805 309.602 805.032 308.515 800.088 306.353L799.612 306.14C794.723 303.8 790.922 300.501 788.196 296.234L787.936 295.817C785.193 291.233 783.815 286.123 783.815 279.429C783.815 272.736 785.366 267.24 788.441 262.905C791.537 258.691 795.874 255.483 801.477 253.295L802.022 253.086C807.897 250.892 814.947 249.791 823.184 249.791H845.188V247.534C845.187 241.795 843.743 237.313 840.789 234.164L840.499 233.863L840.198 233.571C837.05 230.605 832.516 229.162 826.679 229.162C824.228 229.162 821.579 229.196 818.733 229.262L815.822 229.337C812.848 229.423 809.902 229.545 806.991 229.698L804.105 229.86C800.598 229.973 797.449 230.135 794.658 230.349V213.646C797.088 213.437 799.725 213.27 802.57 213.162H802.579L802.588 213.161C804.943 212.986 807.33 212.844 809.751 212.735L812.184 212.639H812.185C815.56 212.519 818.761 212.459 821.781 212.459ZM822.659 262.283C816.599 262.283 811.845 263.724 808.477 266.681L808.162 266.965C804.779 269.992 803.099 273.99 803.099 278.905C803.099 283.667 804.676 287.567 807.851 290.559L808.162 290.846L808.17 290.852C811.555 293.761 816.412 295.178 822.659 295.178C826.33 295.178 829.835 294.523 833.156 293.212L833.163 293.209L833.17 293.207C836.528 291.766 839.277 289.428 841.426 286.2L841.427 286.201C843.717 282.941 844.951 278.394 845.188 272.615V262.283H822.659Z"
    fill="url(#paint28_linear_4435_2481)" stroke="url(#paint29_linear_4435_2481)" />
  <path
    d="M757.373 176.709C761.597 176.709 764.582 177.857 766.433 180.039L766.441 180.05L766.451 180.059C768.455 182.177 769.461 184.734 769.461 188.126C769.461 191.525 768.45 194.259 766.451 196.372L766.446 196.377L766.441 196.383C764.594 198.454 761.498 199.542 757.373 199.542C753.261 199.542 750.27 198.46 748.296 196.377C746.417 194.267 745.455 191.412 745.455 188.126C745.455 184.844 746.414 182.164 748.301 180.049L748.3 180.048C750.277 177.851 753.16 176.709 757.373 176.709Z"
    fill="url(#paint30_linear_4435_2481)" stroke="url(#paint31_linear_4435_2481)" />
  <path d="M770.682 213.686V307.147H751.225V228.459H737.415V213.686H770.682Z"
    fill="url(#paint32_linear_4435_2481)" stroke="url(#paint33_linear_4435_2481)" />
  <path
    d="M689.281 210.545C696.897 210.545 703.907 211.956 709.988 214.772L710.574 215.048L710.577 215.05C716.712 217.958 721.654 222.05 725.405 227.336L725.765 227.85L725.768 227.854C729.462 233.131 731.582 239.289 732.109 246.341H713.319C712.533 241.151 710.106 236.748 706.052 233.149H706.051C701.969 229.424 696.361 227.591 689.281 227.591C683.336 227.591 678.346 228.924 674.341 231.623L673.957 231.888C669.908 234.751 666.879 238.685 664.866 243.672C662.857 248.533 661.856 254.153 661.855 260.514C661.855 266.479 662.683 271.527 664.343 276.227L664.687 277.163L664.69 277.172C666.64 282.006 669.543 285.851 673.405 288.69L673.782 288.962L673.788 288.965C677.969 291.839 683.201 293.257 689.456 293.257C693.992 293.257 697.93 292.531 701.26 291.058L701.918 290.754L701.924 290.751C705.259 289.08 707.982 286.931 710.078 284.301L710.488 283.769L710.494 283.761C712.562 280.882 713.802 277.621 714.213 273.978H733.171C732.766 281.032 730.763 287.194 727.177 292.472L726.818 292.989C722.911 298.409 717.731 302.682 711.272 305.8C704.953 308.74 697.849 310.241 689.956 310.301V310.299H689.456C681.475 310.299 674.491 308.967 668.509 306.314C662.626 303.539 657.735 299.846 653.82 295.232H653.819C650.247 290.787 647.492 285.936 645.547 280.677L645.169 279.62C643.321 273.83 642.398 267.984 642.398 262.086V258.933C642.398 253.181 643.259 247.63 644.986 242.29L645.343 241.224L645.345 241.221C647.182 235.801 649.882 230.89 653.445 226.486L654.169 225.612C657.962 221.14 662.616 217.586 668.146 214.956L668.685 214.704L668.688 214.702C674.554 211.936 681.416 210.545 689.281 210.545Z"
    fill="url(#paint34_linear_4435_2481)" stroke="url(#paint35_linear_4435_2481)" />
  <path
    d="M593.364 210.883H594.236C605.424 210.883 613.768 214.299 619.367 221.068L619.9 221.733C625.515 228.968 628.363 239.59 628.363 253.67V307.147H608.9V250.867C608.9 244.225 607.005 238.838 603.174 234.758H603.175C599.338 230.545 594.061 228.459 587.42 228.459C580.985 228.459 575.516 230.473 571.374 234.522L570.982 234.915C566.786 239.117 564.711 244.746 564.711 251.739V307.147H545.254V213.687H560.518V235.694L561.503 235.812C561.984 233.824 562.562 231.952 563.235 230.189L563.234 230.188C565.685 224.049 569.312 219.393 574.109 216.192L574.577 215.888L574.584 215.883C579.455 212.665 585.475 210.989 592.665 210.888L593.364 210.883Z"
    fill="url(#paint36_linear_4435_2481)" stroke="url(#paint37_linear_4435_2481)" />
  <path
    d="M485.994 212.459C495.516 212.459 503.374 213.681 509.597 216.105V216.106C515.793 218.523 520.361 222.366 523.326 227.627V227.628L523.334 227.64C526.423 232.792 527.985 239.76 527.985 248.587V307.147H512.722V289.491L511.745 289.342C511.077 291.474 510.245 293.438 509.254 295.238L508.819 296L508.816 296.004C506.38 300.228 502.982 303.528 498.606 305.923L498.185 306.149C493.724 308.444 488.445 309.602 481.626 309.602C475.018 309.602 469.245 308.515 464.301 306.353L463.825 306.14C458.936 303.8 455.135 300.501 452.409 296.234L452.148 295.817C449.406 291.233 448.028 286.123 448.028 279.429C448.028 272.737 449.584 267.24 452.654 262.905C455.75 258.691 460.087 255.483 465.689 253.295L466.235 253.086C472.115 250.892 479.16 249.791 487.396 249.791H509.4V247.534C509.4 241.795 507.956 237.313 505.002 234.164L504.712 233.863L504.411 233.571C501.263 230.605 496.729 229.162 490.892 229.162C488.441 229.162 485.792 229.196 482.946 229.262L480.035 229.337C477.061 229.423 474.119 229.545 471.207 229.698L468.318 229.86C464.811 229.973 461.662 230.135 458.871 230.349V213.646C461.3 213.437 463.938 213.27 466.783 213.162H466.792L466.801 213.161C469.156 212.986 471.545 212.844 473.966 212.735L476.396 212.639H476.397C479.773 212.519 482.974 212.459 485.994 212.459ZM486.872 262.283C480.812 262.283 476.058 263.724 472.689 266.681L472.375 266.965C468.992 269.992 467.312 273.99 467.312 278.905C467.312 283.667 468.889 287.567 472.063 290.559L472.375 290.846L472.383 290.852C475.767 293.761 480.625 295.178 486.872 295.178C490.543 295.178 494.047 294.523 497.369 293.212L497.376 293.209L497.383 293.207C500.741 291.766 503.49 289.428 505.639 286.2L505.64 286.201C507.93 282.941 509.169 278.394 509.4 272.615V262.283H486.872Z"
    fill="url(#paint38_linear_4435_2481)" stroke="url(#paint39_linear_4435_2481)" />
  <path
    d="M400.221 210.883H401.093C412.275 210.883 420.624 214.299 426.219 221.067L426.751 221.733C432.366 228.968 435.215 239.59 435.215 253.67V307.147H415.757V250.867C415.757 244.222 413.86 238.833 410.025 234.752H410.024C406.183 230.543 400.914 228.459 394.276 228.459C387.636 228.459 382.02 230.603 377.833 234.916C373.642 239.118 371.567 244.746 371.567 251.739V307.147H352.11V213.687H367.374V235.684L368.359 235.801C368.84 233.818 369.418 231.946 370.086 230.189L370.085 230.188C372.536 224.049 376.168 219.393 380.961 216.192L381.429 215.888L381.435 215.883C386.311 212.665 392.331 210.989 399.521 210.888L400.221 210.883Z"
    fill="url(#paint40_linear_4435_2481)" stroke="url(#paint41_linear_4435_2481)" />
  <path
    d="M321.294 176.709C325.523 176.709 328.503 177.857 330.354 180.039L330.362 180.05L330.371 180.059C332.375 182.177 333.382 184.734 333.382 188.126C333.382 191.525 332.37 194.259 330.371 196.372L330.366 196.377L330.361 196.383C328.514 198.454 325.414 199.542 321.294 199.542C317.185 199.542 314.192 198.459 312.218 196.373C310.336 194.264 309.381 191.411 309.381 188.126C309.381 184.843 310.334 182.164 312.226 180.049L312.225 180.048C314.202 177.85 317.076 176.709 321.294 176.709Z"
    fill="url(#paint42_linear_4435_2481)" stroke="url(#paint43_linear_4435_2481)" />
  <path d="M334.608 213.686V307.147H315.15V228.459H301.336V213.686H334.608Z"
    fill="url(#paint44_linear_4435_2481)" stroke="url(#paint45_linear_4435_2481)" />
  <path
    d="M291.643 180.216V197.442H239.531V234.716H289.02V251.943H239.531V307.147H219.55V180.216H291.643Z"
    fill="url(#paint46_linear_4435_2481)" stroke="url(#paint47_linear_4435_2481)" />
  <defs>
    <linearGradient id="paint0_linear_4435_2481" x1="1074.8" y1="36.9774" x2="1074.8" y2="168.416"
      gradientUnits="userSpaceOnUse">
      <stop stop-color="#1C1917" />
      <stop offset="1" stop-color="#1C1917" stop-opacity="0" />
    </linearGradient>
    <linearGradient id="paint1_linear_4435_2481" x1="1074.8" y1="36.9774" x2="1074.8" y2="168.416"
      gradientUnits="userSpaceOnUse">
      <stop stop-color="#FAC515" stop-opacity="0.16" />
      <stop offset="1" stop-color="#FAC515" stop-opacity="0" />
    </linearGradient>
    <linearGradient id="paint2_linear_4435_2481" x1="987.163" y1="9.46777" x2="987.163" y2="132.491"
      gradientUnits="userSpaceOnUse">
      <stop stop-color="#1C1917" />
      <stop offset="1" stop-color="#1C1917" stop-opacity="0" />
    </linearGradient>
    <linearGradient id="paint3_linear_4435_2481" x1="987.163" y1="9.46777" x2="987.163" y2="132.491"
      gradientUnits="userSpaceOnUse">
      <stop stop-color="#FAC515" stop-opacity="0.16" />
      <stop offset="1" stop-color="#FAC515" stop-opacity="0" />
    </linearGradient>
    <linearGradient id="paint4_linear_4435_2481" x1="916.556" y1="35.9299" x2="916.556" y2="131.438"
      gradientUnits="userSpaceOnUse">
      <stop stop-color="#1C1917" />
      <stop offset="1" stop-color="#1C1917" stop-opacity="0" />
    </linearGradient>
    <linearGradient id="paint5_linear_4435_2481" x1="916.556" y1="35.9299" x2="916.556" y2="131.438"
      gradientUnits="userSpaceOnUse">
      <stop stop-color="#FAC515" stop-opacity="0.16" />
      <stop offset="1" stop-color="#FAC515" stop-opacity="0" />
    </linearGradient>
    <linearGradient id="paint6_linear_4435_2481" x1="829.965" y1="33.8248" x2="829.965" y2="134.59"
      gradientUnits="userSpaceOnUse">
      <stop stop-color="#1C1917" />
      <stop offset="1" stop-color="#1C1917" stop-opacity="0" />
    </linearGradient>
    <linearGradient id="paint7_linear_4435_2481" x1="829.965" y1="33.8248" x2="829.965" y2="134.59"
      gradientUnits="userSpaceOnUse">
      <stop stop-color="#FAC515" stop-opacity="0.16" />
      <stop offset="1" stop-color="#FAC515" stop-opacity="0" />
    </linearGradient>
    <linearGradient id="paint8_linear_4435_2481" x1="723.248" y1="3.50696" x2="723.248" y2="134.591"
      gradientUnits="userSpaceOnUse">
      <stop stop-color="#1C1917" />
      <stop offset="1" stop-color="#1C1917" stop-opacity="0" />
    </linearGradient>
    <linearGradient id="paint9_linear_4435_2481" x1="723.248" y1="3.50696" x2="723.248" y2="134.591"
      gradientUnits="userSpaceOnUse">
      <stop stop-color="#FAC515" stop-opacity="0.16" />
      <stop offset="1" stop-color="#FAC515" stop-opacity="0" />
    </linearGradient>
    <linearGradient id="paint10_linear_4435_2481" x1="644.058" y1="0" x2="644.058" y2="23.8334"
      gradientUnits="userSpaceOnUse">
      <stop stop-color="#1C1917" />
      <stop offset="1" stop-color="#1C1917" stop-opacity="0" />
    </linearGradient>
    <linearGradient id="paint11_linear_4435_2481" x1="644.058" y1="0" x2="644.058" y2="23.8334"
      gradientUnits="userSpaceOnUse">
      <stop stop-color="#FAC515" stop-opacity="0.16" />
      <stop offset="1" stop-color="#FAC515" stop-opacity="0" />
    </linearGradient>
    <linearGradient id="paint12_linear_4435_2481" x1="640.649" y1="36.9774" x2="640.649"
      y2="131.438" gradientUnits="userSpaceOnUse">
      <stop stop-color="#1C1917" />
      <stop offset="1" stop-color="#1C1917" stop-opacity="0" />
    </linearGradient>
    <linearGradient id="paint13_linear_4435_2481" x1="640.649" y1="36.9774" x2="640.649"
      y2="131.438" gradientUnits="userSpaceOnUse">
      <stop stop-color="#FAC515" stop-opacity="0.16" />
      <stop offset="1" stop-color="#FAC515" stop-opacity="0" />
    </linearGradient>
    <linearGradient id="paint14_linear_4435_2481" x1="584.812" y1="3.50696" x2="584.812"
      y2="131.438" gradientUnits="userSpaceOnUse">
      <stop stop-color="#1C1917" />
      <stop offset="1" stop-color="#1C1917" stop-opacity="0" />
    </linearGradient>
    <linearGradient id="paint15_linear_4435_2481" x1="584.812" y1="3.50696" x2="584.812"
      y2="131.438" gradientUnits="userSpaceOnUse">
      <stop stop-color="#FAC515" stop-opacity="0.16" />
      <stop offset="1" stop-color="#FAC515" stop-opacity="0" />
    </linearGradient>
    <linearGradient id="paint16_linear_4435_2481" x1="445.187" y1="3.50696" x2="445.187"
      y2="134.591" gradientUnits="userSpaceOnUse">
      <stop stop-color="#1C1917" />
      <stop offset="1" stop-color="#1C1917" stop-opacity="0" />
    </linearGradient>
    <linearGradient id="paint17_linear_4435_2481" x1="445.187" y1="3.50696" x2="445.187"
      y2="134.591" gradientUnits="userSpaceOnUse">
      <stop stop-color="#FAC515" stop-opacity="0.16" />
      <stop offset="1" stop-color="#FAC515" stop-opacity="0" />
    </linearGradient>
    <linearGradient id="paint18_linear_4435_2481" x1="365.035" y1="3.50696" x2="365.035"
      y2="131.438" gradientUnits="userSpaceOnUse">
      <stop stop-color="#1C1917" />
      <stop offset="1" stop-color="#1C1917" stop-opacity="0" />
    </linearGradient>
    <linearGradient id="paint19_linear_4435_2481" x1="365.035" y1="3.50696" x2="365.035"
      y2="131.438" gradientUnits="userSpaceOnUse">
      <stop stop-color="#FAC515" stop-opacity="0.16" />
      <stop offset="1" stop-color="#FAC515" stop-opacity="0" />
    </linearGradient>
    <linearGradient id="paint20_linear_4435_2481" x1="318.078" y1="35.9299" x2="318.078"
      y2="131.438" gradientUnits="userSpaceOnUse">
      <stop stop-color="#1C1917" />
      <stop offset="1" stop-color="#1C1917" stop-opacity="0" />
    </linearGradient>
    <linearGradient id="paint21_linear_4435_2481" x1="318.078" y1="35.9299" x2="318.078"
      y2="131.438" gradientUnits="userSpaceOnUse">
      <stop stop-color="#FAC515" stop-opacity="0.16" />
      <stop offset="1" stop-color="#FAC515" stop-opacity="0" />
    </linearGradient>
    <linearGradient id="paint22_linear_4435_2481" x1="225.446" y1="33.8248" x2="225.446"
      y2="134.596" gradientUnits="userSpaceOnUse">
      <stop stop-color="#1C1917" />
      <stop offset="1" stop-color="#1C1917" stop-opacity="0" />
    </linearGradient>
    <linearGradient id="paint23_linear_4435_2481" x1="225.446" y1="33.8248" x2="225.446"
      y2="134.596" gradientUnits="userSpaceOnUse">
      <stop stop-color="#FAC515" stop-opacity="0.16" />
      <stop offset="1" stop-color="#FAC515" stop-opacity="0" />
    </linearGradient>
    <linearGradient id="paint24_linear_4435_2481" x1="87.2536" y1="3.50696" x2="87.2536"
      y2="131.438" gradientUnits="userSpaceOnUse">
      <stop stop-color="#1C1917" />
      <stop offset="1" stop-color="#1C1917" stop-opacity="0" />
    </linearGradient>
    <linearGradient id="paint25_linear_4435_2481" x1="87.2536" y1="3.50696" x2="87.2536"
      y2="131.438" gradientUnits="userSpaceOnUse">
      <stop stop-color="#FAC515" stop-opacity="0.16" />
      <stop offset="1" stop-color="#FAC515" stop-opacity="0" />
    </linearGradient>
    <linearGradient id="paint26_linear_4435_2481" x1="885.701" y1="179.716" x2="885.701"
      y2="307.647" gradientUnits="userSpaceOnUse">
      <stop stop-color="#1C1917" />
      <stop offset="1" stop-color="#1C1917" stop-opacity="0" />
    </linearGradient>
    <linearGradient id="paint27_linear_4435_2481" x1="885.701" y1="179.716" x2="885.701"
      y2="307.647" gradientUnits="userSpaceOnUse">
      <stop stop-color="#FAC515" stop-opacity="0.16" />
      <stop offset="1" stop-color="#FAC515" stop-opacity="0" />
    </linearGradient>
    <linearGradient id="paint28_linear_4435_2481" x1="823.794" y1="211.959" x2="823.794"
      y2="310.101" gradientUnits="userSpaceOnUse">
      <stop stop-color="#1C1917" />
      <stop offset="1" stop-color="#1C1917" stop-opacity="0" />
    </linearGradient>
    <linearGradient id="paint29_linear_4435_2481" x1="823.794" y1="211.959" x2="823.794"
      y2="310.101" gradientUnits="userSpaceOnUse">
      <stop stop-color="#FAC515" stop-opacity="0.16" />
      <stop offset="1" stop-color="#FAC515" stop-opacity="0" />
    </linearGradient>
    <linearGradient id="paint30_linear_4435_2481" x1="757.458" y1="176.209" x2="757.458"
      y2="200.042" gradientUnits="userSpaceOnUse">
      <stop stop-color="#1C1917" />
      <stop offset="1" stop-color="#1C1917" stop-opacity="0" />
    </linearGradient>
    <linearGradient id="paint31_linear_4435_2481" x1="757.458" y1="176.209" x2="757.458"
      y2="200.042" gradientUnits="userSpaceOnUse">
      <stop stop-color="#FAC515" stop-opacity="0.16" />
      <stop offset="1" stop-color="#FAC515" stop-opacity="0" />
    </linearGradient>
    <linearGradient id="paint32_linear_4435_2481" x1="754.048" y1="213.186" x2="754.048"
      y2="307.647" gradientUnits="userSpaceOnUse">
      <stop stop-color="#1C1917" />
      <stop offset="1" stop-color="#1C1917" stop-opacity="0" />
    </linearGradient>
    <linearGradient id="paint33_linear_4435_2481" x1="754.048" y1="213.186" x2="754.048"
      y2="307.647" gradientUnits="userSpaceOnUse">
      <stop stop-color="#FAC515" stop-opacity="0.16" />
      <stop offset="1" stop-color="#FAC515" stop-opacity="0" />
    </linearGradient>
    <linearGradient id="paint34_linear_4435_2481" x1="687.798" y1="210.045" x2="687.798"
      y2="310.805" gradientUnits="userSpaceOnUse">
      <stop stop-color="#1C1917" />
      <stop offset="1" stop-color="#1C1917" stop-opacity="0" />
    </linearGradient>
    <linearGradient id="paint35_linear_4435_2481" x1="687.798" y1="210.045" x2="687.798"
      y2="310.805" gradientUnits="userSpaceOnUse">
      <stop stop-color="#FAC515" stop-opacity="0.16" />
      <stop offset="1" stop-color="#FAC515" stop-opacity="0" />
    </linearGradient>
    <linearGradient id="paint36_linear_4435_2481" x1="586.809" y1="210.383" x2="586.809"
      y2="307.647" gradientUnits="userSpaceOnUse">
      <stop stop-color="#1C1917" />
      <stop offset="1" stop-color="#1C1917" stop-opacity="0" />
    </linearGradient>
    <linearGradient id="paint37_linear_4435_2481" x1="586.809" y1="210.383" x2="586.809"
      y2="307.647" gradientUnits="userSpaceOnUse">
      <stop stop-color="#FAC515" stop-opacity="0.16" />
      <stop offset="1" stop-color="#FAC515" stop-opacity="0" />
    </linearGradient>
    <linearGradient id="paint38_linear_4435_2481" x1="488.007" y1="211.959" x2="488.007"
      y2="310.101" gradientUnits="userSpaceOnUse">
      <stop stop-color="#1C1917" />
      <stop offset="1" stop-color="#1C1917" stop-opacity="0" />
    </linearGradient>
    <linearGradient id="paint39_linear_4435_2481" x1="488.007" y1="211.959" x2="488.007"
      y2="310.101" gradientUnits="userSpaceOnUse">
      <stop stop-color="#FAC515" stop-opacity="0.16" />
      <stop offset="1" stop-color="#FAC515" stop-opacity="0" />
    </linearGradient>
    <linearGradient id="paint40_linear_4435_2481" x1="393.662" y1="210.383" x2="393.662"
      y2="307.647" gradientUnits="userSpaceOnUse">
      <stop stop-color="#1C1917" />
      <stop offset="1" stop-color="#1C1917" stop-opacity="0" />
    </linearGradient>
    <linearGradient id="paint41_linear_4435_2481" x1="393.662" y1="210.383" x2="393.662"
      y2="307.647" gradientUnits="userSpaceOnUse">
      <stop stop-color="#FAC515" stop-opacity="0.16" />
      <stop offset="1" stop-color="#FAC515" stop-opacity="0" />
    </linearGradient>
    <linearGradient id="paint42_linear_4435_2481" x1="321.381" y1="176.209" x2="321.381"
      y2="200.042" gradientUnits="userSpaceOnUse">
      <stop stop-color="#1C1917" />
      <stop offset="1" stop-color="#1C1917" stop-opacity="0" />
    </linearGradient>
    <linearGradient id="paint43_linear_4435_2481" x1="321.381" y1="176.209" x2="321.381"
      y2="200.042" gradientUnits="userSpaceOnUse">
      <stop stop-color="#FAC515" stop-opacity="0.16" />
      <stop offset="1" stop-color="#FAC515" stop-opacity="0" />
    </linearGradient>
    <linearGradient id="paint44_linear_4435_2481" x1="317.972" y1="213.186" x2="317.972"
      y2="307.647" gradientUnits="userSpaceOnUse">
      <stop stop-color="#1C1917" />
      <stop offset="1" stop-color="#1C1917" stop-opacity="0" />
    </linearGradient>
    <linearGradient id="paint45_linear_4435_2481" x1="317.972" y1="213.186" x2="317.972"
      y2="307.647" gradientUnits="userSpaceOnUse">
      <stop stop-color="#FAC515" stop-opacity="0.16" />
      <stop offset="1" stop-color="#FAC515" stop-opacity="0" />
    </linearGradient>
    <linearGradient id="paint46_linear_4435_2481" x1="255.596" y1="179.716" x2="255.596"
      y2="307.647" gradientUnits="userSpaceOnUse">
      <stop stop-color="#1C1917" />
      <stop offset="1" stop-color="#1C1917" stop-opacity="0" />
    </linearGradient>
    <linearGradient id="paint47_linear_4435_2481" x1="255.596" y1="179.716" x2="255.596"
      y2="307.647" gradientUnits="userSpaceOnUse">
      <stop stop-color="#FAC515" stop-opacity="0.16" />
      <stop offset="1" stop-color="#FAC515" stop-opacity="0" />
    </linearGradient>
  </defs>
</svg>
  